# xmcd
#
# Track frame offsets:
#	150
#	16768
#	27717
#
# Disc length: 623 seconds
#
# Revision: 0
# Processed by: cddbd v1.5.1PL0 Copyright (c) Steve Scherf et al.
# Submitted via: dBpowerAMP V4.0
#
DISCID=1b026d03
DTITLE=Paul Couter - Snelle Bloente
DYEAR=1900
DGENRE=Blues
TTITLE0=Da Land
TTITLE1=Snelle Bloente
TTITLE2=Shake the tree
EXTD=
EXTT0=
EXTT1=
EXTT2=
PLAYORDER=
